- 
http://www.Speed.Cd      fast  and The Hottest Private Tracker on the net

   signup is open now

Please Seed back to make the speed Faster!!!

------------------nfo--------------------------
-








































          
          
              
              
                    
                    
                    
                    

The Thing 2011 480p RC BDRip LiNE XViD AC3 5.1 - SiC

Poster:

IMDB Link: 
http://www.imdb.com/title/tt0905372/

Description:
At an Antarctica research site, the discovery of an alien craft leads to a confrontation 
between graduate student Kate Lloyd and scientist Dr. Sander Halvorson. 

MediaInfo:
General
Format                           : AVI
Format/Info                      : Audio Video Interleave
File size                        : 1.85 GiB
Duration                         : 1h 43mn
Overall bit rate                 : 2 572 Kbps
Writing application              : VirtualDubMod 1.5.10.2 (build 2540/release)
Writing library                  : VirtualDub build 32842/release

Video
ID                               : 0
Format                           : MPEG-4 Visual
Format profile                   : Advanced Simple@L5
Format settings, BVOP            : 2
Format settings, QPel            : No
Format settings, GMC             : No warppoints
Format settings, Matrix          : Default (H.263)
Muxing mode                      : Packed bitstream
Codec ID                         : XVID
Codec ID/Hint                    : XviD
Duration                         : 1h 43mn
Bit rate                         : 2 114 Kbps
Width                            : 720 pixels
Height                           : 304 pixels
Display aspect ratio             : 2.35:1
Frame rate                       : 23.976 fps
Color space                      : YUV
Chroma subsampling               : 4:2:0
Bit depth                        : 8 bits
Scan type                        : Progressive
Compression mode                 : Lossy
Bits/(Pixel*Frame)               : 0.403
Stream size                      : 1.52 GiB (82%)
Writing library                  : XviD 64

Audio
ID                               : 1
Format                           : AC-3
Format/Info                      : Audio Coding 3
Mode extension                   : CM (complete main)
Codec ID                         : 2000
Duration                         : 1h 43mn
Bit rate mode                    : Constant
Bit rate                         : 448 Kbps
Channel(s)                       : 6 channels
Channel positions                : Front: L C R, Side: L R, LFE
Sampling rate                    : 48.0 KHz
Bit depth                        : 16 bits
Compression mode                 : Lossy
Stream size                      : 330 MiB (17%)
Alignment                        : Split accross interleaves
Interleave, duration             : 42 ms (1.00 video frame)
Interleave, preload duration     : 500 ms

Screenshots:

Note : 
Ok got the Russian bluray filtered and encode... got HiVE-CM8 audio
and then muxed to new video also hardcoded the needed subs =P 
Made this release bigger than a normal size 480p rip as its full of 
dark scenes and needs abit extra bitrat eto for better viewing =D
great video and audio quality so have fun =)

Source: 
Video: Russian Bluray [Thanks!]
Audio: HiVE-CM8 [Thanks!]

Enjoy!

Respects to T00NG0D, ELEKTRI4KA, PA, YeFsTe, Box, MrRep and everyone in the struggle...